<svg width="26" height="26" viewBox="0 0 26 26" fill="none" xmlns="http://www.w3.org/2000/svg">
<path d="M13.476 0.754028C11.0037 0.754028 8.587 1.48714 6.53139 2.86066C4.47578 4.23418 2.87362 6.18641 1.92752 8.47048C0.981429 10.7546 0.733888 13.2679 1.2162 15.6927C1.69852 18.1174 2.88903 20.3447 4.63718 22.0929C6.38534 23.841 8.61263 25.0315 11.0374 25.5138C13.4621 25.9962 15.9755 25.7486 18.2596 24.8025C20.5436 23.8564 22.4959 22.2543 23.8694 20.1987C25.2429 18.143 25.976 15.7263 25.976 13.254C25.9725 9.93989 24.6544 6.7625 22.311 4.41906C19.9675 2.07561 16.7901 0.757528 13.476 0.754028ZM14.4376 23.7865V16.1386H17.3222C17.5772 16.1386 17.8218 16.0373 18.0021 15.857C18.1824 15.6767 18.2837 15.4321 18.2837 15.1771C18.2837 14.9221 18.1824 14.6775 18.0021 14.4972C17.8218 14.3169 17.5772 14.2156 17.3222 14.2156H14.4376V11.3309C14.4376 10.8209 14.6402 10.3318 15.0008 9.97113C15.3615 9.61048 15.8506 9.40787 16.3606 9.40787H18.2837C18.5387 9.40787 18.7833 9.30657 18.9636 9.12624C19.1439 8.94592 19.2452 8.70135 19.2452 8.44633C19.2452 8.19132 19.1439 7.94675 18.9636 7.76642C18.7833 7.5861 18.5387 7.4848 18.2837 7.4848H16.3606C15.3406 7.4848 14.3623 7.89001 13.641 8.61131C12.9197 9.3326 12.5145 10.3109 12.5145 11.3309V14.2156H9.62986C9.37485 14.2156 9.13028 14.3169 8.94995 14.4972C8.76963 14.6775 8.66832 14.9221 8.66832 15.1771C8.66832 15.4321 8.76963 15.6767 8.94995 15.857C9.13028 16.0373 9.37485 16.1386 9.62986 16.1386H12.5145V23.7865C9.80389 23.539 7.29304 22.2562 5.50419 20.2047C3.71534 18.1532 2.7862 15.4911 2.91005 12.7721C3.0339 10.053 4.2012 7.48642 6.16914 5.60608C8.13708 3.72573 10.7542 2.67643 13.476 2.67643C16.1979 2.67643 18.815 3.72573 20.7829 5.60608C22.7508 7.48642 23.9181 10.053 24.042 12.7721C24.1658 15.4911 23.2367 18.1532 21.4478 20.2047C19.659 22.2562 17.1481 23.539 14.4376 23.7865Z" fill="#989898" fill-opacity="0.25"/>
</svg>
