<svg width="26" height="26" viewBox="0 0 26 26" fill="none" xmlns="http://www.w3.org/2000/svg">
<path d="M8.22601 0.746002H18.726C22.726 0.746002 25.976 3.996 25.976 7.996V18.496C25.976 20.4188 25.2122 22.2629 23.8525 23.6225C22.4929 24.9822 20.6488 25.746 18.726 25.746H8.22601C4.22601 25.746 0.976013 22.496 0.976013 18.496V7.996C0.976013 6.07318 1.73985 4.22912 3.09949 2.86948C4.45913 1.50984 6.30319 0.746002 8.22601 0.746002ZM7.97601 3.246C6.78254 3.246 5.63795 3.72011 4.79403 4.56402C3.95012 5.40794 3.47601 6.55253 3.47601 7.746V18.746C3.47601 21.2335 5.48851 23.246 7.97601 23.246H18.976C20.1695 23.246 21.3141 22.7719 22.158 21.928C23.0019 21.0841 23.476 19.9395 23.476 18.746V7.746C23.476 5.2585 21.4635 3.246 18.976 3.246H7.97601ZM20.0385 5.121C20.4529 5.121 20.8503 5.28562 21.1434 5.57865C21.4364 5.87167 21.601 6.2691 21.601 6.6835C21.601 7.0979 21.4364 7.49533 21.1434 7.78836C20.8503 8.08138 20.4529 8.246 20.0385 8.246C19.6241 8.246 19.2267 8.08138 18.9337 7.78836C18.6406 7.49533 18.476 7.0979 18.476 6.6835C18.476 6.2691 18.6406 5.87167 18.9337 5.57865C19.2267 5.28562 19.6241 5.121 20.0385 5.121ZM13.476 6.996C15.1336 6.996 16.7233 7.65448 17.8954 8.82658C19.0675 9.99869 19.726 11.5884 19.726 13.246C19.726 14.9036 19.0675 16.4933 17.8954 17.6654C16.7233 18.8375 15.1336 19.496 13.476 19.496C11.8184 19.496 10.2287 18.8375 9.0566 17.6654C7.88449 16.4933 7.22601 14.9036 7.22601 13.246C7.22601 11.5884 7.88449 9.99869 9.0566 8.82658C10.2287 7.65448 11.8184 6.996 13.476 6.996ZM13.476 9.496C12.4815 9.496 11.5276 9.89109 10.8244 10.5944C10.1211 11.2976 9.72601 12.2514 9.72601 13.246C9.72601 14.2406 10.1211 15.1944 10.8244 15.8977C11.5276 16.6009 12.4815 16.996 13.476 16.996C14.4706 16.996 15.4244 16.6009 16.1277 15.8977C16.8309 15.1944 17.226 14.2406 17.226 13.246C17.226 12.2514 16.8309 11.2976 16.1277 10.5944C15.4244 9.89109 14.4706 9.496 13.476 9.496Z" fill="#989898" fill-opacity="0.25"/>
</svg>
