<svg width="22" height="20" viewBox="0 0 22 20" fill="none" xmlns="http://www.w3.org/2000/svg">
<path d="M12.2088 1.10215C11.7136 0.0987582 10.2828 0.0987682 9.78755 1.10215L7.42964 5.87987L2.1571 6.64601C1.0498 6.80691 0.607665 8.1677 1.40891 8.9487L5.22415 12.6676L4.32349 17.9189C4.13435 19.0217 5.29188 19.8627 6.28227 19.342L10.9982 16.8627L15.7141 19.342C16.7045 19.8627 17.862 19.0217 17.6729 17.9189L16.7722 12.6676L20.5875 8.9487C21.3887 8.1677 20.9466 6.80691 19.8393 6.64601L14.5668 5.87987L12.2088 1.10215ZM8.73983 6.61443L10.9982 2.03854L13.2566 6.61443C13.4532 7.01288 13.8333 7.28904 14.273 7.35294L19.3228 8.0867L15.6687 11.6486C15.3506 11.9587 15.2054 12.4055 15.2805 12.8435L16.1431 17.8729L11.6264 15.4983C11.2331 15.2915 10.7633 15.2915 10.37 15.4983L5.85328 17.8729L6.71589 12.8435C6.791 12.4055 6.64581 11.9587 6.32763 11.6486L2.67357 8.0867L7.72336 7.35294C8.16307 7.28904 8.54319 7.01288 8.73983 6.61443ZM0.164135 1.78102C-0.0946263 2.10446 -0.0421852 2.57643 0.281265 2.83519L2.78126 4.83519C3.1047 5.09395 3.57667 5.04151 3.83543 4.71806C4.09419 4.39461 4.04175 3.92265 3.7183 3.66389L1.2183 1.66389C0.894855 1.40513 0.422885 1.45757 0.164135 1.78102ZM21.8355 16.2181C22.0943 15.8946 22.0418 15.4226 21.7184 15.1639L19.2184 13.1639C18.8949 12.9051 18.423 12.9576 18.1642 13.281C17.9054 13.6045 17.9579 14.0764 18.2813 14.3352L20.7813 16.3352C21.1048 16.5939 21.5767 16.5415 21.8355 16.2181ZM0.281265 15.1639C-0.0421852 15.4226 -0.0946263 15.8946 0.164135 16.2181C0.422885 16.5415 0.894855 16.5939 1.2183 16.3352L3.7183 14.3352C4.04175 14.0764 4.09419 13.6045 3.83543 13.281C3.57667 12.9576 3.1047 12.9051 2.78126 13.1639L0.281265 15.1639ZM21.8355 1.78102C22.0943 2.10446 22.0418 2.57643 21.7184 2.83519L19.2184 4.83519C18.8949 5.09395 18.423 5.04151 18.1642 4.71806C17.9054 4.39461 17.9579 3.92265 18.2813 3.66389L20.7813 1.66389C21.1048 1.40513 21.5767 1.45757 21.8355 1.78102Z" fill="#FFD703"/>
</svg>
