<svg width="31" height="28" viewBox="0 0 31 28" fill="none" xmlns="http://www.w3.org/2000/svg">
<path d="M30.8912 4.32017C30.8071 4.11459 30.6647 3.93887 30.482 3.81522C30.2993 3.69157 30.0845 3.62554 29.8648 3.6255H25.6382C25.0473 2.60765 24.2063 1.76191 23.197 1.17052C22.1877 0.579135 21.0444 0.262212 19.8783 0.250567C19.0096 0.23903 18.1473 0.403527 17.3423 0.734379C16.5372 1.06523 15.8057 1.55575 15.1907 2.17709C14.5577 2.80598 14.0553 3.55666 13.713 4.38498C13.3707 5.2133 13.1955 6.10254 13.1976 7.00043V7.85681C7.6057 6.36341 3.03194 1.75804 2.98333 1.70882C2.83425 1.55655 2.64531 1.45059 2.43875 1.4034C2.23219 1.35621 2.01661 1.36976 1.8174 1.44245C1.61819 1.51515 1.44364 1.64397 1.31432 1.81373C1.18499 1.98349 1.10627 2.18714 1.08743 2.40068C0.4888 9.12101 2.41664 13.6181 4.14309 16.207C4.98489 17.4867 6.00896 18.6335 7.18208 19.61C5.06673 22.0751 1.73606 23.3702 1.69995 23.3843C1.54316 23.4438 1.40167 23.5383 1.28604 23.6609C1.17042 23.7835 1.08366 23.931 1.03224 24.0923C0.980816 24.2536 0.966068 24.4246 0.989094 24.5925C1.01212 24.7604 1.07233 24.9209 1.16521 25.0619C1.26938 25.2194 1.68606 25.7721 2.70415 26.2881C3.96253 26.9266 5.62508 27.25 7.64181 27.25C17.4574 27.25 25.6591 19.5973 26.4966 9.75099L30.6509 5.54639C30.8063 5.38898 30.912 5.18845 30.9548 4.97018C30.9975 4.75191 30.9754 4.52571 30.8912 4.32017ZM24.641 8.45586C24.4505 8.64921 24.3359 8.90612 24.3188 9.17866C23.7535 18.0505 16.431 25 7.64181 25C6.1751 25 5.14173 24.8032 4.41671 24.5669C6.01537 23.688 8.24461 22.1764 9.67799 19.9995C9.76212 19.8715 9.81944 19.7274 9.84641 19.5761C9.87339 19.4248 9.86944 19.2695 9.83482 19.1198C9.8002 18.9701 9.73563 18.8292 9.64512 18.7057C9.5546 18.5823 9.44005 18.4789 9.30854 18.4021C9.24326 18.3641 3.20972 14.6981 3.19722 4.90235C5.41952 6.73043 9.48215 9.56678 14.124 10.3571C14.2831 10.3842 14.4461 10.376 14.6017 10.3329C14.7573 10.2898 14.9018 10.213 15.0251 10.1077C15.1485 10.0023 15.2476 9.87111 15.3158 9.72306C15.384 9.57502 15.4195 9.41372 15.4198 9.25038V7.00043C15.4186 6.40032 15.5359 5.80602 15.7649 5.25251C15.9939 4.69899 16.3299 4.19744 16.7532 3.77737C17.159 3.36576 17.6422 3.0407 18.1742 2.82139C18.7062 2.60208 19.2762 2.49297 19.8505 2.50052C21.6089 2.52302 23.2521 3.60862 23.9396 5.20187C24.0262 5.40218 24.1687 5.57257 24.3495 5.6922C24.5303 5.81183 24.7417 5.87551 24.9577 5.87545H27.18L24.641 8.45586Z" fill="#989898" fill-opacity="0.25"/>
</svg>
